<svg viewBox="0 0 40 40" fill="none" xmlns="http://www.w3.org/2000/svg">
  <!-- Circular Green Swirl Background -->
  <path d="M 33,20 C 33,8.5 25.5,4 17,4 C 8.5,4 3,11 3,20 C 3,28.5 9,33.5 17.5,33.5" stroke="#0E8A3E" stroke-width="2" stroke-linecap="round" fill="none" />
  
  <!-- City Skyline Silhouette (Three Buildings) -->
  <rect x="10" y="11" width="3.5" height="11" fill="#2ECC71" rx="0.5" />
  <rect x="14.5" y="7" width="4.5" height="15" fill="#0E8A3E" rx="0.5" />
  <rect x="20" y="13" width="3.5" height="9" fill="#2ECC71" rx="0.5" />
  
  <!-- CNG Diamond Emblem -->
  <polygon points="33,12 37,15.5 33,19 29,15.5" fill="#0D47A1" stroke="#0E8A3E" stroke-width="1" />
  <text x="33" y="17.2" font-size="3.8" font-family="sans-serif" font-weight="900" fill="#0E8A3E" text-anchor="middle">CNG</text>

  <!-- Blue and Green Swooshes / Road & Leaf Path at bottom -->
  <path d="M 5,23 C 11,31.5 22.5,34 32.5,28 C 26.5,30 16.5,28.5 11.5,22.5 Z" fill="#0D47A1" />
  <path d="M 12,29.5 C 18,33 27.5,32 33.5,24.5 C 27.5,28.5 18,27.5 13,23 Z" fill="#2ECC71" />
  
  <!-- The Keke Vehicle in the Center -->
  <!-- Body -->
  <path d="M 13.5,22 L 13.5,17 C 13.5,15 15,14 18,14 C 21,14 22.5,15 22.5,17 L 22.5,22 Z" fill="#0D47A1" />
  <path d="M 14.5,18 L 21.5,18 L 20.5,22 L 15.5,22 Z" fill="#0E8A3E" />
  <!-- Windshield -->
  <rect x="15" y="15" width="6" height="2.5" fill="#E5E7EB" rx="0.3" />
  <!-- Headlights -->
  <circle cx="15.5" cy="20.5" r="0.75" fill="#FBBF24" />
  <circle cx="20.5" cy="20.5" r="0.75" fill="#FBBF24" />
  <!-- Front Grill -->
  <rect x="17.2" y="19" width="1.6" height="2" fill="#1F2937" rx="0.2" />
</svg>
